<svg width="150" height="175" viewBox="0 0 150 175" fill="none" xmlns="http://www.w3.org/2000/svg">
<g clip-path="url(#clip0_464_684)">
<path d="M95.2747 161.985C96.3047 161.856 96.6909 161.985 97.0772 161.856C120.638 147.667 136.603 127.544 142.654 100.455C144.199 93.6187 143.942 86.5241 142.14 79.5584C138.406 64.5951 125.917 54.2757 110.596 53.3727C102.613 52.8567 94.8884 53.7597 87.9359 58.1455C87.4209 61.8863 87.0347 65.6271 86.2622 69.1099C84.9747 74.7856 82.0135 79.4294 76.7347 82.2673C72.8723 84.4602 69.0098 84.4602 66.9498 82.3963C64.246 79.6874 64.246 76.0756 65.9198 73.1087C68.2373 68.9809 71.0698 65.1111 74.031 61.4993C75.9622 59.1774 78.5372 57.2425 80.8547 55.3076C78.666 40.7313 64.8898 34.5396 48.4098 40.6023C47.8948 42.6662 47.3798 44.8591 46.7361 46.923C44.1611 54.5336 39.3974 60.3384 31.6724 63.0472C28.7112 64.0792 25.4924 64.4662 22.9174 61.7573C20.9862 59.6934 20.9862 56.0816 23.0462 52.4697C26.3937 46.794 31.4149 42.7952 36.8224 39.3124C38.7536 38.1514 40.6849 36.9905 42.6161 35.9586C40.0411 13.3847 19.8274 -2.61056 0 6.419C0.12875 4.74208 -7.86592e-06 3.32315 0.51499 2.54919C1.15874 1.64623 2.57498 1.13026 3.73373 0.872273C14.6774 -1.19163 24.8486 0.0983092 33.2174 8.09592C39.5261 14.0296 43.7749 21.2533 46.6074 29.5089C46.9936 30.6698 47.3799 31.8308 47.8949 32.9917C47.8949 33.1207 48.1523 33.2497 48.6673 33.6367C49.8261 33.5077 51.2423 33.5077 52.6586 33.2497C69.911 30.5408 78.9235 35.1846 86.906 51.3088C88.4509 50.7928 90.2534 50.2768 91.9272 49.6319C101.841 46.278 111.755 46.0201 121.797 49.3739C138.148 54.7916 148.706 68.8519 149.864 86.6531C150.508 96.3276 148.834 105.615 145.358 114.645C136.861 136.445 122.956 153.601 102.098 164.823C101.068 165.468 99.9096 165.984 98.8796 166.629C98.7509 166.758 98.6221 167.016 98.2359 167.79C102.613 168.822 106.733 168.435 110.853 168.177C114.845 168.048 118.965 167.661 123.342 167.403C122.956 170.757 121.153 172.047 118.965 172.821C116.39 173.595 113.815 174.627 111.24 174.756C104.287 175.014 97.2059 175.143 90.1247 174.756C84.5885 174.369 83.0435 171.402 85.4897 166.887C90.7684 157.342 96.1759 147.796 101.583 138.251C102.485 136.703 103.643 135.413 105.06 133.607C107.506 136.445 106.476 138.509 105.575 140.443C101.97 147.409 98.7509 154.375 95.2747 161.985ZM26.7799 57.8875C35.6636 56.7265 41.1998 51.0508 41.5861 43.0532C35.6636 46.923 29.9986 50.4058 26.7799 57.8875ZM70.2973 77.8815C77.8935 76.0756 81.4985 70.9158 80.726 63.0472C75.8335 67.175 71.5848 71.0448 70.2973 77.8815Z" fill="url(#paint0_linear_464_684)"/>
</g>
<defs>
<linearGradient id="paint0_linear_464_684" x1="0" y1="87.5" x2="150" y2="87.5" gradientUnits="userSpaceOnUse">
<stop stop-color="#FE00FE"/>
<stop offset="1" stop-color="#7C038E"/>
</linearGradient>
<clipPath id="clip0_464_684">
<rect width="150" height="175" fill="white"/>
</clipPath>
</defs>
</svg>
