<svg width="174" height="151" viewBox="0 0 174 151" fill="none" xmlns="http://www.w3.org/2000/svg">
<g clip-path="url(#clip0_464_685)">
<path d="M155.849 52.3652C155.673 51.3993 155.775 51.0278 155.633 50.6698C140.996 29.164 121.154 15.1436 95.254 10.8512C88.7165 9.75108 82.03 10.3667 75.5464 12.4347C61.6114 16.7464 52.5216 29.0823 52.4732 43.5988C52.4051 51.1643 53.6634 58.4122 58.1703 64.7478C61.7301 65.0377 65.2831 65.2061 68.6128 65.7527C74.0404 66.6706 78.5814 69.2233 81.5386 74.0595C83.8123 77.592 84.0151 81.2396 82.1741 83.2934C79.7579 85.989 76.3469 86.1786 73.4572 84.7537C69.4373 82.7819 65.634 80.3101 62.0676 77.7032C59.7735 76.0013 57.811 73.6711 55.862 71.5841C42.2114 74.4164 37.0874 87.7515 43.6781 102.997C45.6543 103.374 47.7523 103.746 49.7352 104.245C57.0577 106.278 62.7897 110.471 65.7534 117.625C66.8835 120.367 67.4179 123.386 64.9949 125.96C63.1472 127.893 59.7363 128.082 56.2172 126.326C50.6814 123.463 46.6414 118.931 43.0683 114.007C41.8706 112.244 40.6728 110.481 39.5969 108.712C18.4137 112.329 4.36942 132.258 13.9378 150.509C12.3474 150.475 11.0141 150.671 10.2562 150.225C9.36963 149.665 8.80799 148.354 8.50352 147.274C5.97983 137.047 6.66399 127.374 13.7774 119.051C19.0498 112.781 25.6486 108.39 33.2963 105.281C34.3724 104.855 35.4485 104.43 36.5179 103.882C36.6397 103.876 36.748 103.626 37.0864 103.119C36.9037 102.032 36.8294 100.694 36.5114 99.3701C33.0474 83.2195 36.9597 74.4645 51.7679 66.0794C51.1996 64.6474 50.6176 62.9723 49.9207 61.4255C46.2329 52.2393 45.4687 42.8905 48.1087 33.2305C52.3667 17.5043 65.0906 6.79582 81.8408 4.7669C90.9435 3.65101 99.8023 4.74403 108.512 7.55284C129.546 14.4331 146.478 26.6639 158.171 45.772C158.834 46.7109 159.382 47.7781 160.046 48.7169C160.174 48.8318 160.425 48.9398 161.176 49.2639C161.92 45.0757 161.339 41.2052 160.879 37.3279C160.547 33.5654 159.966 29.6949 159.492 25.5745C162.68 25.7632 163.993 27.3977 164.838 29.424C165.704 31.8152 166.814 34.1928 167.071 36.6178C167.68 43.17 168.174 49.8506 168.18 56.5583C168.105 61.8069 165.384 63.4217 160.992 61.3486C151.7 56.8646 142.402 52.2591 133.103 47.6536C131.594 46.8837 130.315 45.8571 128.535 44.6145C131.087 42.1553 133.09 43.0196 134.965 43.7692C141.732 46.8079 148.48 49.4819 155.849 52.3652ZM61.1376 122.516C59.5748 114.187 53.924 109.257 46.351 109.312C50.3165 114.702 53.9031 119.869 61.1376 122.516ZM77.7347 80.3692C75.6304 73.2902 70.5684 70.1567 63.178 71.2993C67.333 75.703 71.2107 79.5122 77.7347 80.3692Z" fill="url(#paint0_linear_464_685)"/>
</g>
<defs>
<linearGradient id="paint0_linear_464_685" x1="90.5091" y1="146.252" x2="82.6335" y2="4.59445" gradientUnits="userSpaceOnUse">
<stop stop-color="#FE00FE"/>
<stop offset="1" stop-color="#7C038E"/>
</linearGradient>
<clipPath id="clip0_464_685">
<rect width="141.876" height="165.522" fill="white" transform="translate(7.87549 150.845) rotate(-93.1821)"/>
</clipPath>
</defs>
</svg>
