<?xml version="1.0" encoding="UTF-8"?>
<svg id="Layer_1" data-name="Layer 1" xmlns="http://www.w3.org/2000/svg" version="1.1" viewBox="0 0 300 300">
  <defs>
    <style>
      .cls-1, .cls-2 {
        isolation: isolate;
      }

      .cls-3 {
        display: none;
        fill: none;
        stroke: #000;
      }

      .cls-2 {
        fill: #fff;
        font-family: Helvetica-Bold, Helvetica;
        font-size: 16px;
        font-weight: 700;
      }
    </style>
  </defs>
  <path id="SunCatcherStudio" class="cls-3" d="M32.6,148.5c0-59.7,48.4-108.2,108.2-108.2h0c59.7,0,108.2,48.4,108.2,108.2h0c0,59.7-48.4,108.2-108.2,108.2h0c-59.7,0-108.2-48.4-108.2-108.2h0Z"/>
  <g>
    <g class="cls-1">
      <text class="cls-2" transform="translate(41.7 145.1) rotate(-84.4)"><tspan x="0" y="0">C</tspan></text>
    </g>
    <g class="cls-1">
      <text class="cls-2" transform="translate(43 133.6) rotate(-79.6)"><tspan x="0" y="0">r</tspan></text>
    </g>
    <g class="cls-1">
      <text class="cls-2" transform="translate(44.1 127.5) rotate(-76.8)"><tspan x="0" y="0">i</tspan></text>
    </g>
    <g class="cls-1">
      <text class="cls-2" transform="translate(45 123.1) rotate(-73.2)"><tspan x="0" y="0">e</tspan></text>
    </g>
    <g class="cls-1">
      <text class="cls-2" transform="translate(47.7 114.6) rotate(-69.7)"><tspan x="0" y="0"> </tspan></text>
    </g>
    <g class="cls-1">
      <text class="cls-2" transform="translate(49.2 110.4) rotate(-66.1)"><tspan x="0" y="0">a</tspan></text>
    </g>
    <g class="cls-1">
      <text class="cls-2" transform="translate(52.8 102.3) rotate(-62.6)"><tspan x="0" y="0"> </tspan></text>
    </g>
    <g class="cls-1">
      <text class="cls-2" transform="translate(54.8 98.3) rotate(-58.8)"><tspan x="0" y="0">p</tspan></text>
    </g>
    <g class="cls-1">
      <text class="cls-2" transform="translate(59.9 90) rotate(-55)"><tspan x="0" y="0">l</tspan></text>
    </g>
    <g class="cls-1">
      <text class="cls-2" transform="translate(62.4 86.3) rotate(-51.5)"><tspan x="0" y="0">a</tspan></text>
    </g>
    <g class="cls-1">
      <text class="cls-2" transform="translate(68 79.4) rotate(-47.8)"><tspan x="0" y="0">t</tspan></text>
    </g>
    <g class="cls-1">
      <text class="cls-2" transform="translate(71.6 75.4) rotate(-44)"><tspan x="0" y="0">a</tspan></text>
    </g>
    <g class="cls-1">
      <text class="cls-2" transform="translate(78 69.3) rotate(-40.3)"><tspan x="0" y="0">f</tspan></text>
    </g>
    <g class="cls-1">
      <text class="cls-2" transform="translate(82 65.7) rotate(-36.3)"><tspan x="0" y="0">o</tspan></text>
    </g>
    <g class="cls-1">
      <text class="cls-2" transform="translate(89.9 60) rotate(-32.1)"><tspan x="0" y="0">r</tspan></text>
    </g>
    <g class="cls-1">
      <text class="cls-2" transform="translate(95.1 56.5) rotate(-26.6)"><tspan x="0" y="0">m</tspan></text>
    </g>
    <g class="cls-1">
      <text class="cls-2" transform="translate(107.9 50.3) rotate(-20.5)"><tspan x="0" y="0">a</tspan></text>
    </g>
    <g class="cls-1">
      <text class="cls-2" transform="translate(116.3 47.2) rotate(-16.9)"><tspan x="0" y="0"> </tspan></text>
    </g>
    <g class="cls-1">
      <text class="cls-2" transform="translate(120.5 45.9) rotate(-13.1)"><tspan x="0" y="0">p</tspan></text>
    </g>
    <g class="cls-1">
      <text class="cls-2" transform="translate(130 43.7) rotate(-8.2)"><tspan x="0" y="0">e</tspan></text>
    </g>
    <g class="cls-1">
      <text class="cls-2" transform="translate(138.8 42.4) rotate(-4.2)"><tspan x="0" y="0">r</tspan></text>
    </g>
    <g class="cls-1">
      <text class="cls-2" transform="translate(145.1 42) rotate(-1.1)"><tspan x="0" y="0">f</tspan></text>
    </g>
    <g class="cls-1">
      <text class="cls-2" transform="translate(150.4 41.8) rotate(2.6)"><tspan x="0" y="0">e</tspan></text>
    </g>
    <g class="cls-1">
      <text class="cls-2" transform="translate(159.3 42.3) rotate(6.1)"><tspan x="0" y="0">i</tspan></text>
    </g>
    <g class="cls-1">
      <text class="cls-2" transform="translate(163.7 42.8) rotate(8.7)"><tspan x="0" y="0">t</tspan></text>
    </g>
    <g class="cls-1">
      <text class="cls-2" transform="translate(169 43.5) rotate(12.4)"><tspan x="0" y="0">a</tspan></text>
    </g>
    <g class="cls-1">
      <text class="cls-2" transform="translate(177.7 45.5) rotate(16)"><tspan x="0" y="0"> </tspan></text>
    </g>
    <g class="cls-1">
      <text class="cls-2" transform="translate(182 46.6) rotate(19.8)"><tspan x="0" y="0">p</tspan></text>
    </g>
    <g class="cls-1">
      <text class="cls-2" transform="translate(191.1 50) rotate(24.8)"><tspan x="0" y="0">a</tspan></text>
    </g>
    <g class="cls-1">
      <text class="cls-2" transform="translate(199.2 53.7) rotate(28.8)"><tspan x="0" y="0">r</tspan></text>
    </g>
    <g class="cls-1">
      <text class="cls-2" transform="translate(204.7 56.7) rotate(32.8)"><tspan x="0" y="0">a</tspan></text>
    </g>
    <g class="cls-1">
      <text class="cls-2" transform="translate(212.1 61.6) rotate(36.3)"><tspan x="0" y="0"> </tspan></text>
    </g>
    <g class="cls-1">
      <text class="cls-2" transform="translate(215.8 64.2) rotate(40.1)"><tspan x="0" y="0">o</tspan></text>
    </g>
    <g class="cls-1">
      <text class="cls-2" transform="translate(223.2 70.5) rotate(43.8)"><tspan x="0" y="0"> </tspan></text>
    </g>
    <g class="cls-1">
      <text class="cls-2" transform="translate(226.5 73.6) rotate(47.3)"><tspan x="0" y="0">s</tspan></text>
    </g>
    <g class="cls-1">
      <text class="cls-2" transform="translate(232.5 80.1) rotate(52)"><tspan x="0" y="0">e</tspan></text>
    </g>
    <g class="cls-1">
      <text class="cls-2" transform="translate(238 87.1) rotate(57)"><tspan x="0" y="0">u</tspan></text>
    </g>
    <g class="cls-1">
      <text class="cls-2" transform="translate(243.2 95.4) rotate(60.7)"><tspan x="0" y="0"> </tspan></text>
    </g>
    <g class="cls-1">
      <text class="cls-2" transform="translate(245.5 99.2) rotate(64.3)"><tspan x="0" y="0">c</tspan></text>
    </g>
    <g class="cls-1">
      <text class="cls-2" transform="translate(249.3 107.2) rotate(69.3)"><tspan x="0" y="0">u</tspan></text>
    </g>
    <g class="cls-1">
      <text class="cls-2" transform="translate(252.7 116.4) rotate(73.5)"><tspan x="0" y="0">r</tspan></text>
    </g>
    <g class="cls-1">
      <text class="cls-2" transform="translate(254.6 122.3) rotate(77.6)"><tspan x="0" y="0">s</tspan></text>
    </g>
    <g class="cls-1">
      <text class="cls-2" transform="translate(256.5 131) rotate(82.5)"><tspan x="0" y="0">o</tspan></text>
    </g>
    <g class="cls-1">
      <text class="cls-2" transform="translate(257.7 140.7) rotate(86.3)"><tspan x="0" y="0"> </tspan></text>
    </g>
    <g class="cls-1">
      <text class="cls-2" transform="translate(258 145.2) rotate(88.8)"><tspan x="0" y="0">-</tspan></text>
    </g>
    <g class="cls-1">
      <text class="cls-2" transform="translate(258.2 150.5) rotate(93.2)"><tspan x="0" y="0">C</tspan></text>
    </g>
    <g class="cls-1">
      <text class="cls-2" transform="translate(257.4 162) rotate(97.9)"><tspan x="0" y="0">r</tspan></text>
    </g>
    <g class="cls-1">
      <text class="cls-2" transform="translate(256.6 168.2) rotate(100.8)"><tspan x="0" y="0">i</tspan></text>
    </g>
    <g class="cls-1">
      <text class="cls-2" transform="translate(255.8 172.6) rotate(104.3)"><tspan x="0" y="0">e</tspan></text>
    </g>
    <g class="cls-1">
      <text class="cls-2" transform="translate(253.5 181.2) rotate(107.9)"><tspan x="0" y="0"> </tspan></text>
    </g>
    <g class="cls-1">
      <text class="cls-2" transform="translate(252.2 185.4) rotate(111.4)"><tspan x="0" y="0">a</tspan></text>
    </g>
    <g class="cls-1">
      <text class="cls-2" transform="translate(248.9 193.7) rotate(115)"><tspan x="0" y="0"> </tspan></text>
    </g>
    <g class="cls-1">
      <text class="cls-2" transform="translate(247.1 197.8) rotate(118.8)"><tspan x="0" y="0">p</tspan></text>
    </g>
    <g class="cls-1">
      <text class="cls-2" transform="translate(242.3 206.3) rotate(122.5)"><tspan x="0" y="0">l</tspan></text>
    </g>
    <g class="cls-1">
      <text class="cls-2" transform="translate(240 210.1) rotate(126.1)"><tspan x="0" y="0">a</tspan></text>
    </g>
    <g class="cls-1">
      <text class="cls-2" transform="translate(234.7 217.2) rotate(129.8)"><tspan x="0" y="0">t</tspan></text>
    </g>
    <g class="cls-1">
      <text class="cls-2" transform="translate(231.3 221.4) rotate(133.6)"><tspan x="0" y="0">a</tspan></text>
    </g>
    <g class="cls-1">
      <text class="cls-2" transform="translate(225.2 227.8) rotate(137.3)"><tspan x="0" y="0">f</tspan></text>
    </g>
    <g class="cls-1">
      <text class="cls-2" transform="translate(221.3 231.5) rotate(141.3)"><tspan x="0" y="0">o</tspan></text>
    </g>
    <g class="cls-1">
      <text class="cls-2" transform="translate(213.6 237.5) rotate(145.5)"><tspan x="0" y="0">r</tspan></text>
    </g>
    <g class="cls-1">
      <text class="cls-2" transform="translate(208.6 241.2) rotate(150.9)"><tspan x="0" y="0">m</tspan></text>
    </g>
    <g class="cls-1">
      <text class="cls-2" transform="translate(196.1 248) rotate(157.1)"><tspan x="0" y="0">a</tspan></text>
    </g>
    <g class="cls-1">
      <text class="cls-2" transform="translate(187.9 251.4) rotate(160.6)"><tspan x="0" y="0"> </tspan></text>
    </g>
    <g class="cls-1">
      <text class="cls-2" transform="translate(183.7 253) rotate(164.4)"><tspan x="0" y="0">p</tspan></text>
    </g>
    <g class="cls-1">
      <text class="cls-2" transform="translate(174.3 255.6) rotate(169.4)"><tspan x="0" y="0">e</tspan></text>
    </g>
    <g class="cls-1">
      <text class="cls-2" transform="translate(165.5 257.2) rotate(173.4)"><tspan x="0" y="0">r</tspan></text>
    </g>
    <g class="cls-1">
      <text class="cls-2" transform="translate(159.3 257.9) rotate(176.5)"><tspan x="0" y="0">f</tspan></text>
    </g>
    <g class="cls-1">
      <text class="cls-2" transform="translate(154 258.2) rotate(-179.8)"><tspan x="0" y="0">e</tspan></text>
    </g>
    <g class="cls-1">
      <text class="cls-2" transform="translate(145.1 258.1) rotate(-176.3)"><tspan x="0" y="0">i</tspan></text>
    </g>
    <g class="cls-1">
      <text class="cls-2" transform="translate(140.7 257.9) rotate(-173.8)"><tspan x="0" y="0">t</tspan></text>
    </g>
    <g class="cls-1">
      <text class="cls-2" transform="translate(135.4 257.4) rotate(-170)"><tspan x="0" y="0">a</tspan></text>
    </g>
    <g class="cls-1">
      <text class="cls-2" transform="translate(126.6 255.7) rotate(-166.4)"><tspan x="0" y="0"> </tspan></text>
    </g>
    <g class="cls-1">
      <text class="cls-2" transform="translate(122.3 254.8) rotate(-162.6)"><tspan x="0" y="0">p</tspan></text>
    </g>
    <g class="cls-1">
      <text class="cls-2" transform="translate(112.9 251.8) rotate(-157.7)"><tspan x="0" y="0">a</tspan></text>
    </g>
    <g class="cls-1">
      <text class="cls-2" transform="translate(104.7 248.4) rotate(-153.6)"><tspan x="0" y="0">r</tspan></text>
    </g>
    <g class="cls-1">
      <text class="cls-2" transform="translate(99.1 245.7) rotate(-149.6)"><tspan x="0" y="0">a</tspan></text>
    </g>
    <g class="cls-1">
      <text class="cls-2" transform="translate(91.5 241.1) rotate(-146.1)"><tspan x="0" y="0"> </tspan></text>
    </g>
    <g class="cls-1">
      <text class="cls-2" transform="translate(87.7 238.7) rotate(-142.3)"><tspan x="0" y="0">o</tspan></text>
    </g>
    <g class="cls-1">
      <text class="cls-2" transform="translate(80 232.7) rotate(-138.6)"><tspan x="0" y="0"> </tspan></text>
    </g>
    <g class="cls-1">
      <text class="cls-2" transform="translate(76.7 229.8) rotate(-135.1)"><tspan x="0" y="0">s</tspan></text>
    </g>
    <g class="cls-1">
      <text class="cls-2" transform="translate(70.4 223.5) rotate(-130.4)"><tspan x="0" y="0">e</tspan></text>
    </g>
    <g class="cls-1">
      <text class="cls-2" transform="translate(64.6 216.7) rotate(-125.5)"><tspan x="0" y="0">u</tspan></text>
    </g>
    <g class="cls-1">
      <text class="cls-2" transform="translate(59 208.7) rotate(-121.7)"><tspan x="0" y="0"> </tspan></text>
    </g>
    <g class="cls-1">
      <text class="cls-2" transform="translate(56.6 205) rotate(-118.2)"><tspan x="0" y="0">c</tspan></text>
    </g>
    <g class="cls-1">
      <text class="cls-2" transform="translate(52.4 197.1) rotate(-113.2)"><tspan x="0" y="0">u</tspan></text>
    </g>
    <g class="cls-1">
      <text class="cls-2" transform="translate(48.6 188.1) rotate(-108.9)"><tspan x="0" y="0">r</tspan></text>
    </g>
    <g class="cls-1">
      <text class="cls-2" transform="translate(46.5 182.2) rotate(-104.9)"><tspan x="0" y="0">s</tspan></text>
    </g>
    <g class="cls-1">
      <text class="cls-2" transform="translate(44.2 173.6) rotate(-99.9)"><tspan x="0" y="0">o</tspan></text>
    </g>
    <g class="cls-1">
      <text class="cls-2" transform="translate(42.6 164) rotate(-96.1)"><tspan x="0" y="0"> </tspan></text>
    </g>
    <g class="cls-1">
      <text class="cls-2" transform="translate(42.1 159.6) rotate(-93.6)"><tspan x="0" y="0">-</tspan></text>
    </g>
  </g>
  <g class="cls-1">
    <text class="cls-2" transform="translate(32.6 152.6) rotate(-91)"><tspan x="0" y="0"> </tspan></text>
  </g>
</svg>